<?xml version="1.0" encoding="utf-8"?><svg xml:space="preserve" viewBox="0 0 100 100" y="0" x="0" xmlns="http://www.w3.org/2000/svg" id="圖層_1" version="1.1" width="53px" height="53px" xmlns:xlink="http://www.w3.org/1999/xlink" style="width:100%;height:100%;animation-play-state:paused" ><g class="ldl-scale" style="transform-origin:50% 50% 0px;transform:rotate(0deg) scale(0.8);animation-play-state:paused" ><path stroke-miterlimit="10" stroke-linecap="round" stroke-width="3.5" stroke="#333" fill="#f5e6c8" d="M35.711 76.096c-3.904 1.564-8.24 1.488-12.374 1.488H13.106a5.022 5.022 0 0 1-5.022-5.022V49.961a5.022 5.022 0 0 1 3.128-4.651l35.801-14.574a12.79 12.79 0 0 1 15.738 5.18" style="stroke:rgb(94, 111, 163);fill:rgb(104, 156, 197);animation-play-state:paused" ></path>
<path stroke-miterlimit="10" stroke-linecap="round" stroke-width="3.5" stroke="#333" fill="#f5e6c8" d="M62.588 71.196h0a6.052 6.052 0 0 1-6.997-4.93l-4.763-27.485a6.052 6.052 0 0 1 4.93-6.997h0a6.052 6.052 0 0 1 6.997 4.93l4.763 27.485a6.052 6.052 0 0 1-4.93 6.997z" style="stroke:rgb(94, 111, 163);fill:rgb(104, 156, 197);animation-play-state:paused" ></path>
<path stroke-miterlimit="10" stroke-linecap="round" stroke-width="3.5" stroke="#333" fill="#f5e6c8" d="M50.794 77.335h0a6.052 6.052 0 0 1-6.997-4.93L39.034 44.92a6.052 6.052 0 0 1 4.93-6.997h0a6.052 6.052 0 0 1 6.997 4.93l4.763 27.485a6.052 6.052 0 0 1-4.93 6.997z" style="stroke:rgb(94, 111, 163);fill:rgb(104, 156, 197);animation-play-state:paused" ></path>
<g style="animation-play-state:paused" ><path fill="#fff" stroke-miterlimit="10" stroke-width="3.5" stroke="#333" d="M86.999 62.417h-51a4.917 4.917 0 0 1-4.917-4.917V27.334a4.917 4.917 0 0 1 4.917-4.917h51a4.917 4.917 0 0 1 4.917 4.917v30.165a4.917 4.917 0 0 1-4.917 4.918z" style="stroke:rgb(94, 111, 163);fill:rgb(147, 219, 233);animation-play-state:paused" ></path>
<path d="M31.082 32.417h60.835v10H31.082z" stroke-miterlimit="10" stroke-width="3.5" stroke="#333" fill="#333" style="stroke:rgb(94, 111, 163);fill:rgb(94, 111, 163);animation-play-state:paused" ></path></g>
<path stroke-miterlimit="10" stroke-linecap="round" stroke-width="3.5" stroke="#333" fill="#f5e6c8" d="M26.75 62.417l17.587-14.976c2.675-2.921 7.124-3.201 9.938-.625 2.813 2.576 2.926 7.033.251 9.954l-.961 1.056-11.362 12.48c-1.977 2.172-3.703 4.672-6.492 5.789" style="stroke:rgb(94, 111, 163);fill:rgb(104, 156, 197);animation-play-state:paused" ></path>
<metadata xmlns:d="https://loading.io/stock/" style="animation-play-state:paused" ><d:name style="animation-play-state:paused" >payment</d:name>


<d:tags style="animation-play-state:paused" >payment,credit card,pay,paid,purchase,checkout,spend,order,deposit,withdraw,shopping,sell,money</d:tags>


<d:license style="animation-play-state:paused" >by</d:license>


<d:slug style="animation-play-state:paused" >hbitjp</d:slug></metadata></g><!-- generated by https://loading.io/ --></svg>