<?xml version="1.0" encoding="utf-8"?><svg xml:space="preserve" viewBox="0 0 100 100" y="0" x="0" xmlns="http://www.w3.org/2000/svg" id="圖層_1" version="1.1" width="19px" height="19px" xmlns:xlink="http://www.w3.org/1999/xlink" style="width:100%;height:100%;animation-play-state:paused" ><g class="ldl-scale" style="transform-origin:50% 50% 0px;transform:rotate(0deg) scale(0.8);animation-play-state:paused" ><path d="M57.8 62.4l3.3 3.3L76.8 50 61.1 34.3l-3.3 3.3L70.3 50z" fill="none" style="animation-play-state:paused" ></path>
<path d="M46.7 46.7h6.5v6.5h-6.5z" fill="none" transform="rotate(-45.001 50 50.001)" style="animation-play-state:paused" ></path>
<path d="M42.2 37.6l-3.3-3.3L23.2 50l15.7 15.7 3.3-3.3L29.7 50z" fill="none" style="animation-play-state:paused" ></path>
<path stroke-miterlimit="10" stroke-linecap="round" stroke-width="3.5" stroke="#333" fill="#a0c8d7" d="M57.8 37.6L50 29.7l-7.8-7.8c-1.8-1.8-4.7-1.8-6.5 0L10.8 46.7c-1.8 1.8-1.8 4.7 0 6.5l24.9 24.9c1.8 1.8 4.7 1.8 6.5 0l7.8-7.8-7.8-7.8-3.3 3.3L23.2 50l15.7-15.7 3.3 3.3 7.8 7.8 4.6 4.6-4.6 4.6 7.8 7.8 9.2-9.2c1.8-1.8 1.8-4.7 0-6.5l-9.2-9.1z" style="stroke:rgb(94, 111, 163);fill:rgb(147, 219, 233);animation-play-state:paused" ></path>
<path stroke-miterlimit="10" stroke-linecap="round" stroke-width="3.5" stroke="#333" fill="#e15b64" d="M57.8 21.9L50 29.7l7.8 7.8 3.3-3.3L76.8 50 61.1 65.7l-3.3-3.3-7.8-7.8-4.6-4.6 4.6-4.6-7.8-7.8-9.2 9.1c-1.8 1.8-1.8 4.7 0 6.5l9.2 9.2 7.8 7.8 7.8 7.8c1.8 1.8 4.7 1.8 6.5 0l24.9-24.9c1.8-1.8 1.8-4.7 0-6.5L64.4 21.9c-1.8-1.8-4.8-1.8-6.6 0z" style="stroke:rgb(94, 111, 163);fill:rgb(104, 156, 197);animation-play-state:paused" ></path>
<metadata xmlns:d="https://loading.io/stock/" style="animation-play-state:paused" ><d:name style="animation-play-state:paused" >connect</d:name>
<d:tags style="animation-play-state:paused" >connect,join,link,couple,bind,bundle,attach,hook,anchor</d:tags>
<d:license style="animation-play-state:paused" >by</d:license>
<d:slug style="animation-play-state:paused" >so7e4h</d:slug></metadata></g><!-- generated by https://loading.io/ --></svg>